# xmcd
#
# Track frame offsets:
#	150
#	18480
#	32435
#	49910
#	69885
#	83675
#	99455
#	115812
#	137042
#	169170
#	186032
#	208585
#	225510
#	238617
#	248372
#	257747
#	276027
#	288967
#
# Disc length: 4107
#
# Revision: 1
# Processed by: cddbd v1.5.1PL0 Copyright (c) Steve Scherf et al.
# Submitted via: VisiTrax 2.9.9.202 - For more info visit www.synapsa.com
# Normalized: r0:DSETVAR1
#
DISCID=e8100912
DTITLE=Various Artist - The Devil's Music [CD2]
DYEAR=2003
DGENRE=
TTITLE0=Billy Boy Arnold - She Fooled Me
TTITLE1=The Aces - Blue Shadows
TTITLE2=Good Rockin' Charles - Shake Your Boogie
TTITLE3=Little Brother Montgomery - Vicksburg Blues
TTITLE4=Edith Wilson - Yankee Doodle Blues
TTITLE5=Little Brother Montgomery - I Ain't Got No Special Rider Now
TTITLE6=James De Shay - Crossroads
TTITLE7=James De Shay - Pony Blues
TTITLE8=James De Shay - Mistake In Life
TTITLE9=James De Shay - Evil Is Going On
TTITLE10=James De Shay - Hold That Train, Conductor
TTITLE11=James De Shay - Forty Four
TTITLE12=Big Joe Williams - Providence Help The Poor People
TTITLE13=Henry Townsend - Tears Came Rolling Down
TTITLE14=Big Joe Williams - Sloppy Drunk
TTITLE15=Henry Townsend - Wave My Hands Bye Bye
TTITLE16=Big Joe Williams - Meet Me At The Bottom
TTITLE17=Victoria Spivey - T.B. Blues
EXTD=
EXTT0=
EXTT1=
EXTT2=
EXTT3=
EXTT4=
EXTT5=
EXTT6=
EXTT7=
EXTT8=
EXTT9=
EXTT10=
EXTT11=
EXTT12=
EXTT13=
EXTT14=
EXTT15=
EXTT16=
EXTT17=
PLAYORDER=
